<svg width="300" height="91" viewBox="0 0 300 91" fill="none" xmlns="http://www.w3.org/2000/svg">
<g clip-path="url(#clip0_1578_4250)">
<path fill-rule="evenodd" clip-rule="evenodd" d="M186.114 70.6174C168.68 83.4522 143.411 90.3 121.655 90.3C91.15 90.3 63.6873 79.0305 42.9107 60.287C41.2784 58.8131 42.7409 56.8044 44.6998 57.9522C67.1217 70.9826 94.8456 78.8218 123.484 78.8218C142.798 78.8218 164.044 74.8305 183.58 66.5479C186.531 65.2957 189 68.4783 186.114 70.6174Z" fill="#FF9900"/>
<path fill-rule="evenodd" clip-rule="evenodd" d="M193.363 62.3348C191.143 59.4913 178.632 60.9913 173.017 61.6566C171.306 61.8653 171.045 60.3783 172.586 59.3087C182.55 52.3044 198.9 54.3261 200.806 56.6739C202.713 59.0348 200.31 75.4044 190.947 83.2174C189.51 84.4174 188.139 83.7783 188.779 82.187C190.881 76.9435 195.596 65.1913 193.363 62.3348Z" fill="#FF9900"/>
<path fill-rule="evenodd" clip-rule="evenodd" d="M173.409 9.86087V3.05218C173.409 2.02175 174.192 1.33044 175.132 1.33044H205.651C206.63 1.33044 207.414 2.03479 207.414 3.05218V8.88261C207.401 9.86087 206.578 11.1391 205.115 13.1609L189.301 35.713C195.178 35.5696 201.381 36.4435 206.709 39.4435C207.91 40.1217 208.237 41.113 208.328 42.0913V49.3565C208.328 50.3478 207.231 51.5087 206.082 50.9087C196.693 45.9913 184.221 45.4565 173.84 50.9608C172.782 51.5348 171.672 50.3869 171.672 49.3956V42.4956C171.672 41.3869 171.685 39.4956 172.795 37.813L191.116 11.5696H175.172C174.192 11.5696 173.409 10.8783 173.409 9.86087Z" fill="black"/>
<path fill-rule="evenodd" clip-rule="evenodd" d="M62.082 52.3435H52.7971C51.9092 52.2782 51.204 51.613 51.1387 50.7652V3.16959C51.1387 2.21742 51.9353 1.46089 52.9277 1.46089H61.5857C62.4868 1.5 63.205 2.19132 63.2703 3.05219V9.27394H63.4401C65.6992 3.26089 69.9434 0.456543 75.6631 0.456543C81.4743 0.456543 85.1046 3.26089 87.7164 9.27394C89.9625 3.26089 95.0685 0.456543 100.54 0.456543C104.432 0.456543 108.689 2.06089 111.288 5.66089C114.226 9.66523 113.625 15.4826 113.625 20.5826L113.612 50.6217C113.612 51.5739 112.815 52.3435 111.823 52.3435H102.551C101.624 52.2782 100.88 51.5348 100.88 50.6217V25.3957C100.88 23.387 101.062 18.3783 100.619 16.4739C99.9264 13.2783 97.85 12.3783 95.1599 12.3783C92.9138 12.3783 90.5632 13.8783 89.6099 16.2783C88.6566 18.6783 88.748 22.6957 88.748 25.3957V50.6217C88.748 51.5739 87.9515 52.3435 86.959 52.3435H77.6872C76.747 52.2782 76.0157 51.5348 76.0157 50.6217L76.0027 25.3957C76.0027 20.087 76.8776 12.2739 70.2829 12.2739C63.6098 12.2739 63.871 19.8913 63.871 25.3957V50.6217C63.871 51.5739 63.0744 52.3435 62.082 52.3435Z" fill="black"/>
<path fill-rule="evenodd" clip-rule="evenodd" d="M233.687 0.456543C247.464 0.456543 254.921 12.2739 254.921 27.3C254.921 41.8174 246.681 53.3348 233.687 53.3348C220.158 53.3348 212.793 41.5174 212.793 26.7913C212.793 11.9739 220.25 0.456543 233.687 0.456543ZM233.765 10.1739C226.923 10.1739 226.492 19.487 226.492 25.2913C226.492 31.1087 226.4 43.5261 233.687 43.5261C240.882 43.5261 241.222 33.5087 241.222 27.4043C241.222 23.387 241.052 18.587 239.838 14.7783C238.793 11.4652 236.717 10.1739 233.765 10.1739Z" fill="black"/>
<path fill-rule="evenodd" clip-rule="evenodd" d="M272.786 52.3435H263.54C262.613 52.2782 261.869 51.5348 261.869 50.6217L261.855 3.01306C261.934 2.13915 262.704 1.46089 263.645 1.46089H272.25C273.06 1.5 273.726 2.04785 273.909 2.79133V10.0696H274.079C276.677 3.56089 280.321 0.456543 286.732 0.456543C290.898 0.456543 294.96 1.95654 297.571 6.06523C300 9.87393 300 16.2783 300 20.8826V50.8435C299.896 51.6782 299.125 52.3435 298.211 52.3435H288.9C288.051 52.2782 287.346 51.6522 287.255 50.8435V24.9913C287.255 19.787 287.856 12.1696 281.444 12.1696C279.185 12.1696 277.108 13.6826 276.077 15.9783C274.771 18.887 274.601 21.7826 274.601 24.9913V50.6217C274.588 51.5739 273.778 52.3435 272.786 52.3435Z" fill="black"/>
<path fill-rule="evenodd" clip-rule="evenodd" d="M149.079 29.6088C149.079 33.2218 149.17 36.2349 147.342 39.4436C145.866 42.0523 143.516 43.6566 140.917 43.6566C137.352 43.6566 135.263 40.9436 135.263 36.9392C135.263 29.0349 142.354 27.6001 149.079 27.6001V29.6088ZM158.442 52.2131C157.828 52.761 156.94 52.8001 156.248 52.4349C153.166 49.8784 152.605 48.6914 150.92 46.2523C145.827 51.4436 142.21 52.9957 135.615 52.9957C127.793 52.9957 121.721 48.1827 121.721 38.5436C121.721 31.0175 125.795 25.8914 131.619 23.3871C136.66 21.1697 143.699 20.7784 149.079 20.1653V18.9653C149.079 16.761 149.249 14.1523 147.943 12.2479C146.82 10.5392 144.652 9.8349 142.732 9.8349C139.193 9.8349 136.046 11.6479 135.276 15.4045C135.119 16.2392 134.505 17.061 133.656 17.1001L124.659 16.1349C123.902 15.9653 123.053 15.3523 123.275 14.1914C125.338 3.28709 135.21 0.00012207 144.038 0.00012207C148.557 0.00012207 154.459 1.20012 158.024 4.61751C162.543 8.83055 162.112 14.4523 162.112 20.5697V35.0218C162.112 39.3653 163.914 41.2697 165.611 43.6175C166.199 44.4523 166.33 45.4566 165.572 46.0827C163.679 47.661 160.309 50.5957 158.455 52.2392L158.442 52.2131Z" fill="black"/>
<path fill-rule="evenodd" clip-rule="evenodd" d="M27.3582 29.6087C27.3582 33.2217 27.4496 36.2348 25.6214 39.4435C24.1457 42.0522 21.8082 43.6565 19.1964 43.6565C15.6314 43.6565 13.555 40.9434 13.555 36.9391C13.555 29.0348 20.646 27.6 27.3582 27.6V29.6087ZM36.7214 52.213C36.1076 52.7608 35.2196 52.8 34.5275 52.4347C31.4456 49.8782 30.8971 48.6913 29.1995 46.2521C24.1066 51.4434 20.5023 52.9956 13.8946 52.9956C6.08539 52.9956 0 48.1826 0 38.5435C0 31.0174 4.08741 25.8913 9.89857 23.3869C14.9393 21.1695 21.978 20.7783 27.3582 20.1652V18.9652C27.3582 16.7609 27.528 14.1522 26.2351 12.2478C25.099 10.5391 22.9313 9.83478 21.0247 9.83478C17.4857 9.83478 14.3255 11.6478 13.555 15.4043C13.3983 16.2391 12.7846 17.0609 11.9488 17.1L2.93823 16.1348C2.18082 15.9652 1.34505 15.3522 1.554 14.1913C3.63035 3.28696 13.4897 0 22.3175 0C26.8358 0 32.7384 1.2 36.3035 4.61739C40.8218 8.83043 40.3909 14.4522 40.3909 20.5696V35.0217C40.3909 39.3652 42.193 41.2695 43.8907 43.6174C44.4914 44.4521 44.6219 45.4565 43.8645 46.0826C41.971 47.6608 38.6018 50.5956 36.7475 52.2391L36.7214 52.213Z" fill="black"/>
</g>
<defs>
<clipPath id="clip0_1578_4250">
<rect width="300" height="90.3" fill="white"/>
</clipPath>
</defs>
</svg>
